<svg xmlns="http://www.w3.org/2000/svg" width="26" height="26" viewBox="0 0 208 208"><path d="M104 0a104 104 0 1 0 104 104A104 104 0 0 0 104 0Zm88 104a88 88 0 0 1-3 24h-39a157 157 0 0 0 0-48h39a88 88 0 0 1 3 24ZM78 144h52a115 115 0 0 1-26 45 115 115 0 0 1-26-45zm-4-16a141 141 0 0 1 0-48h60a141 141 0 0 1 0 48zm-58-24a88 88 0 0 1 3-24h39a157 157 0 0 0 0 48H19a88 88 0 0 1-3-24Zm114-40H78a115 115 0 0 1 26-45 115 115 0 0 1 26 45zm52 0h-35a135 135 0 0 0-23-46 88 88 0 0 1 58 46ZM84 18a135 135 0 0 0-23 46H26a88 88 0 0 1 58-46ZM26 144h35a135 135 0 0 0 23 46 88 88 0 0 1-58-46Zm98 46a135 135 0 0 0 23-46h35a88 88 0 0 1-58 46z" style="fill:#268bd2;fill-opacity:1"/></svg>