<svg xmlns="http://www.w3.org/2000/svg" style="fill:transparent;stroke-linecap:round;stroke-linejoin:bevel;stroke-width:.06em;stroke:#268bd2" height="32" width="32"><path d="m6.5 27.6 12.9 2.9c-1-5.1 3.4-3.4 5.8-4.2.8-2.1-1.4-3.2 1.3-4.1-.7-.7-1-1.2 0-1.8-1.2-2.7.7-2.4 1.5-2.8 2-.9-3.6-4-1.5-6.8-1.9-13.9-22.7-11.1-23 .7-.2 6 5.5 8.5 3 16.1zM16.8 5.8c-1.6-1.6-3.9-1.8-5.5.2-1.4 0-3.8.8-3.4 4.2-2.3 1.5-1.7 4.9 1.6 5-1.5 1.6.3 2.3 1.8 2.3 1.3 0 .2 3.3.2 3.3h1c1.2-3.2 2.2-3.9 4-5.4 2.4.1 4.7-1.3 4.9-3.1 3.4-1 2-5-.3-4.8-.4-1.4-2.3-2.6-4.4-1.5zm-3.1 1.3c1.1.7.8 1.3.3 2 2 0 3.3.7 2.3 3.5m2.3-.9c2.4 1.8.4 3.9-2 3.6m4.9-5.7c.9.6 1.7.5 2.1-.1m-4.4 0c.1-1.2.7-1.9 2-2.1m-9.7 1.1c-.6-.9-.5-1.7-.3-2.5m.3 5.5c-.4-1.1-1.4-1.7-3.6-1.3m.9 2.4c1.4-1.1.4-2.5-.9-2.4m4.5 5.4c-.7-1.5-1.5-1.2-2.9-.5m7.1.2c-2.8-2-5-1.5-7.1-.2m4.6-3.6c-1.9 2.1.8 2.8 2.6 3.8"/></svg>