<svg xmlns="http://www.w3.org/2000/svg" width="16" height="16"><path d="M3 0v1H2v1H1v12h1v1h1v1h11V0Z" style="fill:#000"/><path d="M3 1v1H2v12h1v1h10V1Z" style="fill:#ae6c37"/><path d="M11 9h2v2h-2zM3 9h2v2H3z" style="fill:#e2c231"/><path d="M3 3h1v6H3z" style="fill:#c59782"/><path d="M3 1h2v2H3zm8 0h2v2h-2z" style="fill:#e2c231"/><path d="M4 2h8v8H4z" style="fill:#ae6c37"/><path d="M3 11v1H2v2h1v1h10v-4z" style="fill:#823c3d"/><path d="M3 12h10v2H3z" style="fill:#ffe9c5"/><path d="M12 12h1v2h-1z" style="fill:#ac947e"/><path d="M4 13h2v3H4z" style="fill:#ac335c"/><path d="M7 3v1H6v1h1v1H6v1h1v1h1V7h1v1h1V7h1V6h-1V5h1V4h-1V3H9v1H8V3Zm1 2h1v1H8Z" style="fill:#3f3f3f"/><path d="M8 3h1v1H8zm2 2h1v1h-1zm0 2h1v1h-1zM8 7h1v1H8zM6 7h1v1H6z" style="fill:#fff"/></svg>
