<svg width="808" height="388" viewBox="-2 -1 216.8 104.1" xmlns="http://www.w3.org/2000/svg"><g transform="translate(-45.4 -78.7)"><path style="fill:#fff;fill-opacity:1;stroke:none;stroke-width:.465;stroke-linecap:round;stroke-dasharray:none;stroke-opacity:.989637" d="M119.5 142.2h65.6v39.2h-65.6zM45.4 142.2H111v39.2H45.4zM193.6 142.2h65.6v39.2h-65.6z"/><path style="fill:none;stroke:#fafafa;stroke-width:2.70239289;stroke-linecap:butt;stroke-linejoin:miter;stroke-opacity:1;stroke-dasharray:none" d="m128.5 108.8-50.3 34.4M144.4 108.8l7.9 34.4M160.2 108.8l66.2 34.4"/><path style="fill:#fff;fill-opacity:1;stroke:none;stroke-width:.465;stroke-linecap:round;stroke-dasharray:none;stroke-opacity:.989637" d="M119.5 78.7h65.6v39.2h-65.6z"/><path style="fill:#fff;stroke:#000;stroke-width:.465;stroke-linecap:round;stroke-dasharray:none;stroke-opacity:.989637" d="M120.5 79.7H184v37h-63.5z"/><path style="fill:none;stroke:#000;stroke-width:.465;stroke-linecap:butt;stroke-linejoin:miter;stroke-dasharray:none;stroke-opacity:1" d="M120.5 101H184M152.3 101v15.8M136.4 101v15.8M168.2 101v15.8M141.7 79.7V101M162.9 79.7V101"/><text xml:space="preserve" style="font-style:normal;font-weight:400;font-size:10.5833px;line-height:1.25;font-family:sans-serif;text-align:center;text-anchor:middle;fill:#000;fill-opacity:1;stroke:none;stroke-width:.264583" x="131" y="94.1"><tspan style="text-align:center;text-anchor:middle;stroke-width:.264583" x="131" y="94.1">5</tspan></text><text xml:space="preserve" style="font-style:normal;font-weight:400;font-size:10.5833px;line-height:1.25;font-family:sans-serif;text-align:center;text-anchor:middle;fill:#000;fill-opacity:1;stroke:none;stroke-width:.264583" x="151.9" y="94.2"><tspan style="text-align:center;text-anchor:middle;stroke-width:.264583" x="151.9" y="94.2">17</tspan></text><circle style="fill:#000;fill-opacity:1;stroke:none;stroke-width:.465;stroke-linecap:round;stroke-dasharray:none;stroke-opacity:.989637" cx="128.5" cy="108.8" r="2.6"/><circle style="fill:#000;fill-opacity:1;stroke:none;stroke-width:.465;stroke-linecap:round;stroke-dasharray:none;stroke-opacity:.989637" cx="144.4" cy="108.8" r="2.6"/><circle style="fill:#000;fill-opacity:1;stroke:none;stroke-width:.465;stroke-linecap:round;stroke-dasharray:none;stroke-opacity:.989637" cx="160.2" cy="108.8" r="2.6"/><circle style="fill:#000;fill-opacity:1;stroke:none;stroke-width:.465;stroke-linecap:round;stroke-dasharray:none;stroke-opacity:.989637" cx="176.1" cy="108.8" r="2.6"/><text xml:space="preserve" style="font-style:normal;font-weight:400;font-size:10.5833px;line-height:1.25;font-family:sans-serif;text-align:center;text-anchor:middle;fill:#000;fill-opacity:1;stroke:none;stroke-width:.264583" x="77.8" y="157.7"/><path style="fill:none;stroke:#000;stroke-width:1.18134624;stroke-linecap:square;stroke-linejoin:miter;stroke-opacity:1;stroke-dasharray:none" d="m128.5 108.8-50.3 34.4M144.4 108.8l7.9 34.4M160.2 108.8l66.2 34.4"/><path style="fill:#fff;stroke:#000;stroke-width:.465;stroke-linecap:round;stroke-dasharray:none;stroke-opacity:.989637" d="M120.5 143.2H184v37h-63.5z"/><path style="fill:none;stroke:#000;stroke-width:.465;stroke-linecap:butt;stroke-linejoin:miter;stroke-dasharray:none;stroke-opacity:1" d="M120.5 164.4H184M152.3 164.4v15.9M136.4 164.4v15.9M168.2 164.4v15.9M141.7 143.2v21.2M162.9 143.2v21.2"/><text xml:space="preserve" style="font-style:normal;font-weight:400;font-size:10.5833px;line-height:1.25;font-family:sans-serif;text-align:center;text-anchor:middle;fill:#000;fill-opacity:1;stroke:none;stroke-width:.264583" x="131" y="157.6"><tspan style="text-align:center;text-anchor:middle;stroke-width:.264583" x="131" y="157.6">8</tspan></text><text xml:space="preserve" style="font-style:normal;font-weight:400;font-size:10.5833px;line-height:1.25;font-family:sans-serif;text-align:center;text-anchor:middle;fill:#000;fill-opacity:1;stroke:none;stroke-width:.264583" x="151.9" y="157.7"><tspan style="text-align:center;text-anchor:middle;stroke-width:.264583" x="151.9" y="157.7">10</tspan></text><circle style="fill:#000;fill-opacity:1;stroke:none;stroke-width:.465;stroke-linecap:round;stroke-dasharray:none;stroke-opacity:.989637" cx="128.5" cy="172.3" r="2.6"/><circle style="fill:#000;fill-opacity:1;stroke:none;stroke-width:.465;stroke-linecap:round;stroke-dasharray:none;stroke-opacity:.989637" cx="144.4" cy="172.3" r="2.6"/><circle style="fill:#000;fill-opacity:1;stroke:none;stroke-width:.465;stroke-linecap:round;stroke-dasharray:none;stroke-opacity:.989637" cx="160.2" cy="172.3" r="2.6"/><circle style="fill:#000;fill-opacity:1;stroke:none;stroke-width:.465;stroke-linecap:round;stroke-dasharray:none;stroke-opacity:.989637" cx="176.1" cy="172.3" r="2.6"/><path style="fill:#fff;stroke:#000;stroke-width:.465;stroke-linecap:round;stroke-dasharray:none;stroke-opacity:.989637" d="M46.5 143.2H110v37H46.5z"/><path style="fill:none;stroke:#000;stroke-width:.465;stroke-linecap:butt;stroke-linejoin:miter;stroke-dasharray:none;stroke-opacity:1" d="M46.5 164.4H110M78.2 164.4v15.9M62.3 164.4v15.9M94 164.4v15.9M67.6 143.2v21.2M88.8 143.2v21.2"/><text xml:space="preserve" style="font-style:normal;font-weight:400;font-size:10.5833px;line-height:1.25;font-family:sans-serif;text-align:center;text-anchor:middle;fill:#000;fill-opacity:1;stroke:none;stroke-width:.264583" x="56.9" y="157.6"><tspan style="text-align:center;text-anchor:middle;stroke-width:.264583" x="56.9" y="157.6">3</tspan></text><circle style="fill:#000;fill-opacity:1;stroke:none;stroke-width:.465;stroke-linecap:round;stroke-dasharray:none;stroke-opacity:.989637" cx="54.4" cy="172.3" r="2.6"/><circle style="fill:#000;fill-opacity:1;stroke:none;stroke-width:.465;stroke-linecap:round;stroke-dasharray:none;stroke-opacity:.989637" cx="70.3" cy="172.3" r="2.6"/><circle style="fill:#000;fill-opacity:1;stroke:none;stroke-width:.465;stroke-linecap:round;stroke-dasharray:none;stroke-opacity:.989637" cx="86.1" cy="172.3" r="2.6"/><circle style="fill:#000;fill-opacity:1;stroke:none;stroke-width:.465;stroke-linecap:round;stroke-dasharray:none;stroke-opacity:.989637" cx="102" cy="172.3" r="2.6"/><path style="fill:#fff;stroke:#000;stroke-width:.465;stroke-linecap:round;stroke-dasharray:none;stroke-opacity:.989637" d="M194.6 143.2h63.5v37h-63.5z"/><path style="fill:none;stroke:#000;stroke-width:.465;stroke-linecap:butt;stroke-linejoin:miter;stroke-dasharray:none;stroke-opacity:1" d="M194.6 164.4h63.5M226.4 164.4v15.9M210.5 164.4v15.9M242.2 164.4v15.9M215.8 143.2v21.2M237 143.2v21.2"/><text xml:space="preserve" style="font-style:normal;font-weight:400;font-size:10.5833px;line-height:1.25;font-family:sans-serif;text-align:center;text-anchor:middle;fill:#000;fill-opacity:1;stroke:none;stroke-width:.264583" x="205.1" y="157.6"><tspan style="text-align:center;text-anchor:middle;stroke-width:.264583" x="205.1" y="157.6">18</tspan></text><text xml:space="preserve" style="font-style:normal;font-weight:400;font-size:10.5833px;line-height:1.25;font-family:sans-serif;text-align:center;text-anchor:middle;fill:#000;fill-opacity:1;stroke:none;stroke-width:.264583" x="226" y="157.7"><tspan style="text-align:center;text-anchor:middle;stroke-width:.264583" x="226" y="157.7">21</tspan></text><circle style="fill:#000;fill-opacity:1;stroke:none;stroke-width:.465;stroke-linecap:round;stroke-dasharray:none;stroke-opacity:.989637" cx="202.6" cy="172.3" r="2.6"/><circle style="fill:#000;fill-opacity:1;stroke:none;stroke-width:.465;stroke-linecap:round;stroke-dasharray:none;stroke-opacity:.989637" cx="218.4" cy="172.3" r="2.6"/><circle style="fill:#000;fill-opacity:1;stroke:none;stroke-width:.465;stroke-linecap:round;stroke-dasharray:none;stroke-opacity:.989637" cx="234.3" cy="172.3" r="2.6"/><circle style="fill:#000;fill-opacity:1;stroke:none;stroke-width:.465;stroke-linecap:round;stroke-dasharray:none;stroke-opacity:.989637" cx="250.2" cy="172.3" r="2.6"/><text xml:space="preserve" style="font-style:normal;font-weight:400;font-size:10.7318px;line-height:1.25;font-family:sans-serif;text-align:center;text-anchor:middle;fill:#000;fill-opacity:1;stroke:none;stroke-width:.268296" x="173.1" y="157.8"><tspan style="text-align:center;text-anchor:middle;stroke-width:.268296" x="173.1" y="157.8">11</tspan></text></g></svg>