<svg xmlns="http://www.w3.org/2000/svg" height="35" width="120" viewBox="0 0 40.95 11.81"><path d="M0 2.3v-.4h2.92v.4q-.78.07-.78.38v.04q0 .18.86 2.67.85 2.48 1.14 3.06.53-1.2 1.35-3.31.83-2.13.83-2.32 0-.25-.17-.34-.16-.1-.71-.15v-.41h2.5v.38q-.44.04-.64.29-.19.23-.58 1.15L4.24 9.73h-.67L.83 2.98q-.14-.34-.31-.5-.16-.15-.52-.17zm8.24 7.43v-.4q.32-.01.5-.05.17-.03.3-.13.16-.1.16-.3.04-1.35.04-3.5 0-1.6-.04-2.61-.01-.23-.17-.3-.15-.1-.55-.1l-.15-.04v-.4q.57.06 1.46.06.85 0 1.32-.03l2.79-.01.12.12-.15.96-.13 1h-.36q-.2-1.1-.24-1.15-.06-.2-.16-.28-.12-.03-.4-.06-.25-.03-1.33-.03-.48 0-.67.07-.19.07-.2.29-.02.57-.04 2.52 1.5 0 2.6-.05l-.1.78h-.18q-.2-.14-.69-.2-.49-.06-1.05-.07h-.6l-.01 3.03q0 .25.38.34.38.07 1.39.07.95 0 1.1-.12.27-.24.55-1.3l.14-.57h.4q-.04.28-.07 1.28l-.03 1.18zm6.68 1.66l.06-.08q.2.03.4.03 1.01 0 1.86-.7.85-.67.85-1.46 0-1.26-1.81-1.26h-.24l-.07-.46q.65-.1 1.09-.3.44-.2.62-.44t.24-.4q.06-.17.06-.33 0-.28-.15-.5-.13-.24-.34-.34-.19-.12-.35-.17-.14-.07-.2-.07-.47 0-1.49.58l-.17-.3 1.17-.93q.3-.1.58-.1.73 0 1.31.45.6.42.6 1.1 0 1.09-1.44 1.74.66 0 1.12.47.45.45.45 1 0 1.1-1.1 2.03-1.09.93-2.8.93zm5.09-1.78l4.72-7.1q-.53-.05-1.1-.05l-1.87.04q-.16 0-.3.18-.12.17-.17.3-.08.17-.36 1.16h-.36q-.04-.63-.04-2.1l.13-.12h5.62l.13.12q-4.44 6.25-4.83 7.05.61.1 1.2.1 2.27 0 2.42-.13.28-.23.54-1.21l.1-.4h.43q-.09 1.27-.09 2.28h-6.04zm7.38-5.63q0-.67.23-1.1.25-.45.95-.84.51-.28 1.35-.28.8 0 1.57.4l.12.12q0 .53-.1 1.86h-.36l-.13-.41-.16-.5-.06-.24q-.09-.21-.17-.28-.3-.27-1.03-.27-.67 0-1.01.24-.35.24-.35.87 0 .25.07.46.07.22.21.36l.27.23.3.17 1.6.83q1.27.66 1.27 1.97 0 .56-.14.89-.13.33-.55.8-.57.63-1.8.63-.99 0-2.07-.48.07-1.01.07-2.14h.4l.14.58q.15.57.23.74.08.16.28.3.54.25 1.2.25.63 0 .94-.25.3-.25.3-.9 0-.92-.97-1.44l-.85-.42-.82-.44q-.19-.12-.32-.25l-.08-.1q-.53-.56-.53-1.36zm5.2 5.75v-.4q.31-.01.48-.05.18-.03.32-.13.15-.1.15-.3 0-3.66-.08-6.12 0-.23-.16-.3-.15-.1-.57-.1l-.13-.03v-.4h2.93v.4h-.15q-.41.03-.57.1-.15.09-.16.32l-.05 2.64h4.35q-.01-1.28-.06-2.63 0-.23-.17-.3-.14-.1-.56-.1l-.14-.02v-.4h2.93v.4h-.15q-.41.03-.57.1-.15.09-.16.32-.08 2.12-.08 6.12 0 .2.14.3.14.1.3.13.19.04.52.06v.39h-2.93v-.4q.31-.01.48-.05.18-.03.32-.13.15-.1.15-.3l-.02-3.04h-4.36l-.01 1.43-.01 1.18v.43q0 .2.13.3.14.1.31.13.18.04.5.06v.39z" fill="#268bd2"/></svg>